<svg xmlns="http://www.w3.org/2000/svg" xmlns:xlink="http://www.w3.org/1999/xlink" width="1080" zoomAndPan="magnify" viewBox="0 0 810 809.999993" height="1080" preserveAspectRatio="xMidYMid meet" version="1.0"><defs><clipPath id="2c31f4730b"><path d="M 41.019531 234 L 770 234 L 770 760 L 41.019531 760 Z M 41.019531 234 " clip-rule="nonzero"/></clipPath><clipPath id="4f161aa3f6"><path d="M 41.019531 666 L 770 666 L 770 679 L 41.019531 679 Z M 41.019531 666 " clip-rule="nonzero"/></clipPath></defs><path fill="#e15c63" d="M 370.828125 545.585938 L 347.722656 545.585938 L 347.722656 562.683594 L 324.621094 562.683594 L 324.621094 539.234375 L 301.515625 539.234375 L 301.515625 620.039062 L 278.410156 620.039062 L 278.410156 637.773438 L 255.308594 637.773438 L 255.308594 622.582031 L 232.203125 622.582031 L 232.203125 539.234375 L 209.101562 539.234375 L 209.101562 522.253906 L 185.996094 522.253906 L 185.996094 511.335938 L 162.894531 511.335938 L 162.894531 492.507812 L 139.789062 492.507812 L 139.789062 540.679688 L 116.683594 540.679688 L 116.683594 585.902344 L 93.582031 585.902344 L 93.582031 627.894531 L 70.476562 627.894531 L 70.476562 637.773438 L 47.375 637.773438 L 47.375 672.425781 L 393.929688 672.425781 L 393.929688 568.519531 L 370.828125 568.519531 Z M 370.828125 545.585938 " fill-opacity="1" fill-rule="nonzero"/><path fill="#e15c63" d="M 740.488281 616.976562 L 717.386719 616.976562 L 717.386719 627.375 L 694.28125 627.375 L 694.28125 586.65625 L 671.175781 586.65625 L 671.175781 573.3125 L 648.074219 573.3125 L 648.074219 546.511719 L 624.96875 546.511719 L 624.96875 530.570312 L 601.867188 530.570312 L 601.867188 508.101562 L 578.761719 508.101562 L 578.761719 530.570312 L 555.65625 530.570312 L 555.65625 609.699219 L 532.554688 609.699219 L 532.554688 569.730469 L 509.449219 569.730469 L 509.449219 601.09375 L 486.347656 601.09375 L 486.347656 672.425781 L 763.59375 672.425781 L 763.59375 561.414062 L 740.488281 561.414062 Z M 740.488281 616.976562 " fill-opacity="1" fill-rule="nonzero"/><path fill="#e15c63" d="M 567.902344 225.367188 L 603.714844 190.945312 L 630.804688 190.945312 L 722.640625 98.703125 L 735.925781 130.238281 L 763.59375 37.070312 L 671.121094 66.992188 C 671.121094 66.992188 687.925781 73.574219 701.5 78.949219 L 621.445312 159.347656 L 594.355469 159.347656 L 558.488281 193.773438 L 532.4375 193.773438 L 454 268.398438 L 368.34375 197.933594 L 338.308594 221.09375 L 304.058594 197.933594 L 243.351562 248.183594 L 172.191406 211.851562 L 47.375 309.292969 L 47.375 348.222656 L 175.484375 248.183594 L 247.566406 284.050781 L 305.5 236.113281 L 339.753906 258.8125 L 367.707031 237.265625 L 454.058594 308.832031 L 541.796875 225.367188 Z M 567.902344 225.367188 " fill-opacity="1" fill-rule="nonzero"/><path fill="#8bcb8f" d="M 347.722656 545.585938 L 370.828125 545.585938 L 370.828125 672.425781 L 347.722656 672.425781 Z M 347.722656 545.585938 " fill-opacity="1" fill-rule="nonzero"/><path fill="#8bcb8f" d="M 301.515625 539.234375 L 324.621094 539.234375 L 324.621094 672.425781 L 301.515625 672.425781 Z M 301.515625 539.234375 " fill-opacity="1" fill-rule="nonzero"/><path fill="#8bcb8f" d="M 255.308594 637.773438 L 278.410156 637.773438 L 278.410156 672.425781 L 255.308594 672.425781 Z M 255.308594 637.773438 " fill-opacity="1" fill-rule="nonzero"/><path fill="#8bcb8f" d="M 209.101562 539.234375 L 232.203125 539.234375 L 232.203125 672.425781 L 209.101562 672.425781 Z M 209.101562 539.234375 " fill-opacity="1" fill-rule="nonzero"/><path fill="#8bcb8f" d="M 162.894531 511.335938 L 185.996094 511.335938 L 185.996094 672.425781 L 162.894531 672.425781 Z M 162.894531 511.335938 " fill-opacity="1" fill-rule="nonzero"/><path fill="#8bcb8f" d="M 116.683594 540.679688 L 139.789062 540.679688 L 139.789062 672.425781 L 116.683594 672.425781 Z M 116.683594 540.679688 " fill-opacity="1" fill-rule="nonzero"/><path fill="#8bcb8f" d="M 70.476562 627.894531 L 93.582031 627.894531 L 93.582031 672.425781 L 70.476562 672.425781 Z M 70.476562 627.894531 " fill-opacity="1" fill-rule="nonzero"/><path fill="#8bcb8f" d="M 486.347656 601.09375 L 509.449219 601.09375 L 509.449219 672.425781 L 486.347656 672.425781 Z M 486.347656 601.09375 " fill-opacity="1" fill-rule="nonzero"/><path fill="#8bcb8f" d="M 532.554688 609.699219 L 555.65625 609.699219 L 555.65625 672.425781 L 532.554688 672.425781 Z M 532.554688 609.699219 " fill-opacity="1" fill-rule="nonzero"/><path fill="#8bcb8f" d="M 578.761719 508.101562 L 601.867188 508.101562 L 601.867188 672.425781 L 578.761719 672.425781 Z M 578.761719 508.101562 " fill-opacity="1" fill-rule="nonzero"/><path fill="#8bcb8f" d="M 624.96875 546.511719 L 648.074219 546.511719 L 648.074219 672.425781 L 624.96875 672.425781 Z M 624.96875 546.511719 " fill-opacity="1" fill-rule="nonzero"/><path fill="#8bcb8f" d="M 671.175781 586.65625 L 694.28125 586.65625 L 694.28125 672.425781 L 671.175781 672.425781 Z M 671.175781 586.65625 " fill-opacity="1" fill-rule="nonzero"/><path fill="#8bcb8f" d="M 717.386719 616.976562 L 740.488281 616.976562 L 740.488281 672.425781 L 717.386719 672.425781 Z M 717.386719 616.976562 " fill-opacity="1" fill-rule="nonzero"/><path fill="#e5357f" d="M 763.59375 37.070312 L 735.925781 130.238281 L 722.640625 98.703125 L 630.804688 190.945312 L 603.714844 190.945312 L 567.902344 225.367188 L 541.796875 225.367188 L 454.058594 308.832031 L 367.707031 237.265625 L 339.753906 258.8125 L 305.5 236.113281 L 247.566406 284.050781 L 175.484375 248.183594 L 47.375 348.222656 L 47.375 309.292969 L 172.191406 211.851562 L 243.351562 248.183594 L 304.058594 197.933594 L 338.308594 221.09375 L 368.34375 197.933594 L 454 268.398438 L 532.4375 193.773438 L 558.488281 193.773438 L 594.355469 159.347656 L 621.445312 159.347656 L 701.5 78.949219 C 687.925781 73.574219 671.121094 66.992188 671.121094 66.992188 Z M 763.59375 37.070312 " fill-opacity="1" fill-rule="nonzero"/><g clip-path="url(#2c31f4730b)"><path fill="#dc6b3a" d="M 440.140625 759.066406 C 440.128906 759.066406 440.117188 759.066406 440.097656 759.066406 C 437.222656 759.050781 434.800781 756.914062 434.414062 754.066406 L 397.355469 479.511719 L 389.714844 496.289062 C 388.667969 498.578125 386.265625 499.921875 383.765625 499.628906 C 381.265625 499.328125 379.25 497.4375 378.785156 494.96875 L 356.273438 375.738281 L 347.023438 389.953125 C 345.824219 391.796875 343.664062 392.800781 341.484375 392.535156 C 339.296875 392.269531 337.449219 390.78125 336.726562 388.695312 L 331.867188 374.6875 L 324.191406 390.074219 C 323.136719 392.195312 320.875 393.460938 318.542969 393.253906 C 316.1875 393.054688 314.1875 391.445312 313.496094 389.1875 L 302.46875 353.203125 L 279.261719 460.109375 C 278.765625 462.394531 276.933594 464.164062 274.628906 464.574219 C 272.304688 464.996094 269.996094 463.960938 268.738281 461.976562 L 258.628906 446.03125 C 254.574219 452.398438 247.890625 459.460938 238.207031 459.460938 C 220.601562 459.460938 214.328125 431.992188 206.386719 397.21875 C 197.847656 359.820312 187.222656 313.273438 161.386719 313.273438 C 121.917969 313.273438 111.34375 375.121094 100.148438 440.609375 C 90.648438 496.191406 80.828125 553.664062 51.03125 578.066406 C 48.5625 580.085938 44.929688 579.722656 42.902344 577.257812 C 40.882812 574.789062 41.238281 571.144531 43.710938 569.128906 C 70.171875 547.457031 79.625 492.148438 88.769531 438.664062 C 100.808594 368.242188 112.179688 301.726562 161.390625 301.726562 C 196.4375 301.726562 207.714844 351.09375 217.65625 394.648438 C 223.074219 418.378906 229.8125 447.914062 238.210938 447.914062 C 245.667969 447.914062 251.203125 436.457031 252.546875 432.441406 C 253.257812 430.328125 255.117188 428.816406 257.328125 428.550781 C 259.542969 428.265625 261.707031 429.3125 262.902344 431.195312 L 270.960938 443.90625 L 295.871094 329.152344 C 296.425781 326.582031 298.652344 324.714844 301.277344 324.605469 C 303.785156 324.523438 306.269531 326.171875 307.042969 328.683594 L 320.3125 371.984375 L 327.65625 357.257812 C 328.699219 355.175781 330.890625 353.933594 333.195312 354.066406 C 335.511719 354.21875 337.523438 355.742188 338.28125 357.9375 L 343.773438 373.765625 L 354.433594 357.371094 C 355.71875 355.398438 358.054688 354.402344 360.394531 354.855469 C 362.710938 355.308594 364.515625 357.128906 364.953125 359.445312 L 386.757812 474.90625 L 395.148438 456.488281 C 396.21875 454.148438 398.730469 452.8125 401.25 453.167969 C 403.796875 453.542969 405.789062 455.558594 406.128906 458.105469 L 440.425781 712.234375 L 479.074219 453.121094 C 480.789062 444.699219 486.757812 438.175781 494.699219 435.804688 C 502.734375 433.40625 511.054688 435.519531 516.960938 441.464844 C 522.214844 446.761719 527.066406 449 531.417969 448.128906 C 537.355469 446.953125 543.390625 420.796875 547.382812 403.492188 C 555.769531 367.152344 565.269531 325.96875 592.976562 325.96875 C 618.003906 325.96875 625.113281 360.679688 631.988281 394.25 C 637.433594 420.863281 643.613281 451.019531 657.78125 451.019531 C 674.542969 451.019531 678.121094 408.65625 680.726562 377.726562 C 683.664062 342.800781 685.898438 322.808594 697.519531 318.175781 C 704.621094 315.289062 711.65625 316.566406 717.273438 321.792969 C 718.570312 323.023438 720.210938 323.558594 721.792969 323.3125 C 722.785156 323.160156 724.15625 322.640625 725.039062 321.042969 C 731.824219 308.632812 734.125 295.019531 736.347656 281.855469 C 739.675781 262.171875 742.816406 243.578125 761.085938 234.761719 C 763.960938 233.367188 767.410156 234.574219 768.796875 237.453125 C 770.183594 240.320312 768.980469 243.777344 766.105469 245.164062 C 753.214844 251.390625 750.796875 265.683594 747.738281 283.785156 C 745.46875 297.234375 742.890625 312.46875 735.164062 326.601562 C 732.730469 331.015625 728.496094 333.972656 723.546875 334.734375 C 718.367188 335.515625 713.195312 333.882812 709.355469 330.207031 C 707.070312 328.085938 704.804688 327.683594 701.835938 328.898438 C 696.246094 331.125 693.730469 360.90625 692.230469 378.703125 C 688.914062 418.019531 685.160156 462.574219 657.777344 462.574219 C 634.175781 462.574219 627.308594 429.023438 620.660156 396.574219 C 614.996094 368.894531 608.570312 337.527344 592.96875 337.527344 C 574.445312 337.527344 565.679688 375.550781 558.632812 406.09375 C 552.09375 434.433594 546.929688 456.824219 533.6875 459.460938 C 527.910156 460.621094 518.910156 459.855469 508.757812 449.601562 C 505.910156 446.738281 501.894531 445.726562 498.003906 446.871094 C 494.09375 448.042969 491.261719 451.128906 490.449219 455.125 L 445.855469 754.128906 C 445.429688 756.976562 442.996094 759.066406 440.140625 759.066406 Z M 440.140625 759.066406 " fill-opacity="1" fill-rule="nonzero"/></g><g clip-path="url(#4f161aa3f6)"><path fill="#93b2b8" d="M 763.59375 678.203125 L 47.375 678.203125 C 44.183594 678.203125 41.597656 675.617188 41.597656 672.425781 C 41.597656 669.238281 44.183594 666.652344 47.375 666.652344 L 763.59375 666.652344 C 766.78125 666.652344 769.367188 669.238281 769.367188 672.425781 C 769.367188 675.617188 766.78125 678.203125 763.59375 678.203125 Z M 763.59375 678.203125 " fill-opacity="1" fill-rule="nonzero"/></g></svg>